<svg xmlns="http://www.w3.org/2000/svg" viewBox="0 0 137.59 87.75"><defs><style>.cls-1{fill:#cd5c5c;}</style></defs><g id="Layer_2" data-name="Layer 2"><g id="Layer_1-2" data-name="Layer 1"><path class="cls-1" d="M37.42,63c2.1-4.9,4.19-9.8,6.31-14.69,5.16-11.91,12-22.72,21.49-31.65C78,4.63,93,1.41,109.87,5.19A73.15,73.15,0,0,1,137.59,17.7c-3.67-.64-7.34-1.32-11-1.9-27-4.28-46.41,7.36-60.26,29.55-4.37,7-7.22,14.95-10.81,22.43-2.16,4.49-4,9.25-6.73,13.32-5.64,8.28-12.51,8.77-19.68,1.78A114.23,114.23,0,0,1,7,52.81c-4.69-9.2-7.45-19-6.94-29.54C.54,13.41,4.55,5.53,13.12,0c.07.49.2.77.12.88-7.1,8.94-7.5,18.58-1.47,27.85C19.46,40.55,28,51.81,36.16,63.32Z"/></g></g></svg>
