<svg width="18" height="18" viewBox="0 0 18 18" fill="none" xmlns="http://www.w3.org/2000/svg">
<path d="M9 0C8.37 0 7.875 0.495 7.875 1.125C7.875 1.755 8.37 2.25 9 2.25C9.63 2.25 10.125 1.755 10.125 1.125C10.125 0.495 9.63 0 9 0ZM3.375 2.25C2.745 2.25 2.25 2.745 2.25 3.375C2.25 4.005 2.745 4.5 3.375 4.5C4.005 4.5 4.5 4.005 4.5 3.375C4.5 2.745 4.005 2.25 3.375 2.25ZM14.625 2.25C13.995 2.25 13.5 2.745 13.5 3.375C13.5 4.005 13.995 4.5 14.625 4.5C15.255 4.5 15.75 4.005 15.75 3.375C15.75 2.745 15.255 2.25 14.625 2.25ZM9 4.5C6.525 4.5 4.5 6.525 4.5 9C4.5 11.475 6.525 13.5 9 13.5C11.475 13.5 13.5 11.475 13.5 9C13.5 6.525 11.475 4.5 9 4.5ZM1.125 7.875C0.495 7.875 0 8.37 0 9C0 9.63 0.495 10.125 1.125 10.125C1.755 10.125 2.25 9.63 2.25 9C2.25 8.37 1.755 7.875 1.125 7.875ZM16.875 7.875C16.245 7.875 15.75 8.37 15.75 9C15.75 9.63 16.245 10.125 16.875 10.125C17.505 10.125 18 9.63 18 9C18 8.37 17.505 7.875 16.875 7.875ZM3.375 13.5C2.745 13.5 2.25 13.995 2.25 14.625C2.25 15.255 2.745 15.75 3.375 15.75C4.005 15.75 4.5 15.255 4.5 14.625C4.5 13.995 4.005 13.5 3.375 13.5ZM14.625 13.5C13.995 13.5 13.5 13.995 13.5 14.625C13.5 15.255 13.995 15.75 14.625 15.75C15.255 15.75 15.75 15.255 15.75 14.625C15.75 13.995 15.255 13.5 14.625 13.5ZM9 15.75C8.37 15.75 7.875 16.245 7.875 16.875C7.875 17.505 8.37 18 9 18C9.63 18 10.125 17.505 10.125 16.875C10.125 16.245 9.63 15.75 9 15.75Z" fill="#F5F5F5"/>
</svg>
